<svg xmlns="http://www.w3.org/2000/svg" viewBox="0 0 64 64">
  <!-- Fondo del favicon -->
  <rect width="64" height="64" rx="8" fill="#1b4965ff"/>
  
  <!-- Icono de clipboard list (emulando fa-clipboard-list) -->
  <g fill="#ffffff">
    <!-- Forma base del portapapeles -->
    <path d="M18 10h28c2.2 0 4 1.8 4 4v36c0 2.2-1.8 4-4 4H18c-2.2 0-4-1.8-4-4V14c0-2.2 1.8-4 4-4z"/>
    
    <!-- Clip superior -->
    <path d="M38 8h-12c0-2.2 1.8-4 4-4h4c2.2 0 4 1.8 4 4z" fill="#bee9e8ff"/>
    
    <!-- Interior del clipboard -->
    <rect x="18" y="14" width="28" height="36" fill="#62b6cbff"/>
    
    <!-- Líneas de la lista (texto) -->
    <rect x="22" y="20" width="4" height="4" rx="1" fill="#ffffff"/>
    <rect x="28" y="20" width="14" height="4" rx="1" fill="#ffffff"/>
    
    <rect x="22" y="30" width="4" height="4" rx="1" fill="#ffffff"/>
    <rect x="28" y="30" width="14" height="4" rx="1" fill="#ffffff"/>
    
    <rect x="22" y="40" width="4" height="4" rx="1" fill="#ffffff"/>
    <rect x="28" y="40" width="14" height="4" rx="1" fill="#ffffff"/>
  </g>
</svg>